<svg xmlns="http://www.w3.org/2000/svg" xmlns:xlink="http://www.w3.org/1999/xlink" aria-hidden="true" role="img" class="iconify iconify--logos" width="35.93" height="32" preserveAspectRatio="xMidYMid meet" viewBox="0 0 256 228">
  <symbol id="icon-logo" viewBox="0 0 136 15">
    <path fill="#475467" d="M135.393 7.188h-3.608a.99.99 0 0 0-.235-.576 1.316 1.316 0 0 0-.532-.37 1.814 1.814 0 0 0-.711-.134c-.336 0-.625.062-.866.185-.242.123-.36.298-.355.525-.005.161.064.31.206.448.146.137.428.243.845.32l2.216.397c1.117.204 1.948.547 2.493 1.03.549.478.826 1.12.831 1.925-.005.776-.237 1.45-.696 2.024-.455.568-1.078 1.008-1.868 1.32-.786.308-1.684.462-2.692.462-1.667 0-2.971-.34-3.913-1.022-.938-.682-1.461-1.582-1.57-2.7h3.892c.052.346.223.614.511.803.294.185.663.277 1.108.277.36 0 .656-.061.888-.184.237-.123.358-.299.362-.526-.004-.208-.109-.374-.312-.497-.199-.123-.512-.223-.938-.298l-1.931-.341c-1.113-.194-1.946-.564-2.5-1.108-.554-.545-.829-1.246-.824-2.103-.005-.757.194-1.399.596-1.924.407-.53.987-.933 1.74-1.208.758-.279 1.655-.419 2.692-.419 1.577 0 2.82.327 3.729.98.914.654 1.394 1.558 1.442 2.713Z" />
    <path fill="#101828" d="M62.508 0v14.546h-3.92V0h3.92Z" />
    <!-- Додайте інші частини тут -->
  </symbol>
</svg>