<svg aria-hidden="true" style="position: absolute; width: 0; height: 0; overflow: hidden;" version="1.1" xmlns="http://www.w3.org/2000/svg" xmlns:xlink="http://www.w3.org/1999/xlink">
<defs>

<symbol id="icon-water" viewBox="0 0 32 32">
<path stroke="#101828" stroke-linecap="butt" stroke-miterlimit="10" stroke-width="2" d="M25 20c0 5.523-3.477 9-9 9s-9-3.477-9-9c0-5.927 6.452-13.928 8.43-16.243 0.138-0.161 0.342-0.263 0.57-0.263s0.432 0.101 0.569 0.262l0.001 0.001c1.978 2.315 8.43 10.316 8.43 16.243z"></path>
<path stroke="#101828" stroke-linecap="round" stroke-miterlimit="4" stroke-width="2" d="M21.5 20.5c0 2.485-2.015 4.5-4.5 4.5v0"></path>
</symbol>

    <symbol id="icon-radio" viewBox="0 0 32 32">
      <path d="M31.286.469a1.996 1.996 0 0 0-1.633-.438l-17.002 3A1.998 1.998 0 0 0 10.999 5v17.17C9.984 21.434 8.667 21 7.205 21c-.85 0-1.7.141-2.529.416-1.898.633-3.42 1.902-4.176 3.484-.584 1.223-.659 2.553-.214 3.746C1.047 30.684 3.209 32 5.794 32c.85 0 1.7-.139 2.528-.416 1.897-.631 3.419-1.9 4.175-3.48A4.963 4.963 0 0 0 12.98 26h.018V10c.115 0 .232-.01.348-.029l16.655-2.939V19.17c-1.016-.736-2.332-1.17-3.795-1.17-.85 0-1.701.141-2.529.416-1.898.633-3.42 1.902-4.174 3.484-.584 1.223-.66 2.553-.215 3.746C20.05 27.684 22.21 29 24.796 29a7.96 7.96 0 0 0 2.529-.416c1.896-.631 3.418-1.9 4.174-3.48A4.964 4.964 0 0 0 31.983 23h.018V2c0-.59-.262-1.152-.715-1.531zM7.688 29.688c-2.396.799-4.873.018-5.529-1.74-.658-1.76.751-3.834 3.146-4.633 2.396-.799 4.873-.02 5.529 1.74.659 1.759-.75 3.834-3.146 4.633zm18.965-3c-2.398.799-4.875.018-5.531-1.74-.658-1.76.752-3.834 3.146-4.633 2.398-.799 4.875-.02 5.531 1.74.659 1.759-.749 3.834-3.146 4.633zM29.96 5 12.958 8V5L29.96 2v3z"/>
    </symbol>
  
 
    <symbol id="icon-microwave" viewBox="0 0 32 32">
    
  <path stroke="#101828" stroke-linecap="round" stroke-linejoin="round" stroke-width="2" d="M26.667 5.333H5.333A2.667 2.667 0 0 0 2.667 8v14.667a2.667 2.667 0 0 0 2.666 2.666h21.334a2.667 2.667 0 0 0 2.666-2.666V8a2.667 2.667 0 0 0-2.666-2.667Z"/>
  <path stroke="#101828" stroke-linecap="round" stroke-linejoin="round" stroke-width="2" d="M17.333 10.667h-8C8.597 10.667 8 11.264 8 12v6.667C8 19.403 8.597 20 9.333 20h8c.737 0 1.334-.597 1.334-1.333V12c0-.736-.597-1.333-1.334-1.333ZM24 10.667V20M8 25.333V28m16-2.667V28"/>
 </symbol>
 

<symbol id="icon-gas" viewBox="0 0 32 32">
<path stroke="#101828" stroke-linecap="round" stroke-miterlimit="4" stroke-width="2.4" d="M8 25.333h5.333M24 25.345v-0.012M2.667 8c0-4.413 0.92-5.333 5.333-5.333h16c4.413 0 5.333 0.92 5.333 5.333v16c0 4.413-0.92 5.333-5.333 5.333h-16c-4.413 0-5.333-0.92-5.333-5.333v-16z"></path>
<path stroke="#101828" stroke-linecap="round" stroke-miterlimit="4" stroke-width="2.4" d="M16 18.667c2.946 0 5.334-2.388 5.334-5.334s-2.388-5.334-5.334-5.334v0c-2.946 0-5.334 2.388-5.334 5.334s2.388 5.334 5.334 5.334v0zM20.667 13.333h2M16 18v2M11.333 13.333h-2M16 8.667v-2"></path>
</symbol>

<symbol id="icon-refrigerator" viewBox="0 0 32 32">
<path d="M23.667 9.333c0-0.552-0.448-1-1-1s-1 0.448-1 1v0 2.667c0 0.552 0.448 1 1 1s1-0.448 1-1v0-2.667zM23.667 18.667c0-0.552-0.448-1-1-1s-1 0.448-1 1v0 2.666c0 0.552 0.448 1 1 1s1-0.448 1-1v0-2.666z"></path>
<path d="M16.075 1.667h-0.15c-2.45 0-4.392 0-5.91 0.204-1.563 0.21-2.828 0.653-3.827 1.65-0.997 0.999-1.44 2.264-1.65 3.827-0.205 1.52-0.205 3.46-0.205 5.91v4.15c0 2.45 0 4.392 0.204 5.91 0.211 1.563 0.654 2.829 1.651 3.827 0.613 0.612 1.325 1.015 2.145 1.284v0.904c0 0.552 0.448 1 1 1v0h1.334c0.552 0 1-0.448 1-1v0-0.394c1.209 0.061 2.62 0.061 4.258 0.061h0.15c1.64 0 3.049 0 4.258-0.061v0.394c0 0.552 0.448 1 1 1v0h1.334c0.552 0 1-0.448 1-1v0-0.904c0.82-0.269 1.533-0.672 2.145-1.284 0.997-0.998 1.44-2.264 1.65-3.826 0.205-1.52 0.205-3.46 0.205-5.911v-4.148c0-2.45 0-4.392-0.204-5.91-0.211-1.563-0.654-2.829-1.651-3.827-0.999-0.998-2.264-1.44-3.827-1.651-1.52-0.204-3.46-0.204-5.91-0.204zM7.603 4.936c0.564-0.564 1.337-0.903 2.678-1.083 1.371-0.184 3.176-0.186 5.719-0.186s4.35 0.002 5.72 0.186c1.34 0.18 2.113 0.519 2.677 1.083s0.903 1.337 1.083 2.679c0.184 1.37 0.187 3.176 0.187 5.718v1h-19.334v-1c0-2.542 0.003-4.348 0.187-5.72 0.18-1.34 0.519-2.113 1.083-2.677zM6.333 16.333h19.334v1c0 2.543-0.003 4.35-0.187 5.72-0.18 1.34-0.519 2.114-1.083 2.678s-1.337 0.902-2.678 1.082c-1.371 0.184-3.176 0.187-5.719 0.187s-4.348-0.003-5.72-0.187c-1.34-0.18-2.113-0.518-2.677-1.082s-0.903-1.338-1.083-2.679c-0.184-1.37-0.187-3.176-0.187-5.719v-1z"></path>
</symbol>

<symbol id="icon-alcove" viewBox="0 0 32 32">
<path d="M8 4v4h-4v-4h4zM10 28v-4c0-1.105-0.895-2-2-2v0h-4c-1.105 0-2 0.895-2 2v0 4c0 1.105 0.895 2 2 2v0h4c1.105 0 2-0.895 2-2v0zM10 18v-4c0-1.105-0.895-2-2-2v0h-4c-1.105 0-2 0.895-2 2v0 4c0 1.105 0.895 2 2 2v0h4c1.105 0 2-0.895 2-2v0zM10 8v-4c0-1.105-0.895-2-2-2v0h-4c-1.105 0-2 0.895-2 2v0 4c0 1.105 0.895 2 2 2v0h4c1.105 0 2-0.895 2-2v0zM20 28v-4c0-1.105-0.895-2-2-2v0h-4c-1.105 0-2 0.895-2 2v0 4c0 1.105 0.895 2 2 2v0h4c1.105 0 2-0.895 2-2v0zM20 18v-4c0-1.105-0.895-2-2-2v0h-4c-1.105 0-2 0.895-2 2v0 4c0 1.105 0.895 2 2 2v0h4c1.105 0 2-0.895 2-2v0zM20 8v-4c0-1.105-0.895-2-2-2v0h-4c-1.105 0-2 0.895-2 2v0 4c0 1.105 0.895 2 2 2v0h4c1.105 0 2-0.895 2-2v0zM18 4v4h-4v-4h4zM28 4v4h-4v-4h4zM8 14v4h-4v-4h4zM18 14v4h-4v-4h4zM28 14h-4v4h4v-4zM8 24v4h-4v-4h4zM18 24v4h-4v-4h4zM28 24v4h-4v-4h4zM24 2c-1.105 0-2 0.895-2 2v0 4c0 1.105 0.895 2 2 2v0h4c1.105 0 2-0.895 2-2v0-4c0-1.105-0.895-2-2-2v0h-4zM22 14c0-1.105 0.895-2 2-2v0h4c1.105 0 2 0.895 2 2v0 4c0 1.105-0.895 2-2 2v0h-4c-1.105 0-2-0.895-2-2v0-4zM24 22c-1.105 0-2 0.895-2 2v0 4c0 1.105 0.895 2 2 2v0h4c1.105 0 2-0.895 2-2v0-4c0-1.105-0.895-2-2-2v0h-4z"></path>
</symbol>
<symbol id="icon-fullyintegrated" viewBox="0 0 32 32">
<path d="M2 5c0-1.657 1.343-3 3-3v0h6c1.657 0 3 1.343 3 3v0 6c0 1.657-1.343 3-3 3v0h-6c-1.657 0-3-1.343-3-3v0-6zM5 4c-0.552 0-1 0.448-1 1v0 6c0 0.552 0.448 1 1 1v0h6c0.552 0 1-0.448 1-1v0-6c0-0.552-0.448-1-1-1v0h-6zM18 5c0-1.657 1.343-3 3-3v0h6c1.657 0 3 1.343 3 3v0 6c0 1.657-1.343 3-3 3v0h-6c-1.657 0-3-1.343-3-3v0-6zM21 4c-0.552 0-1 0.448-1 1v0 6c0 0.552 0.448 1 1 1v0h6c0.552 0 1-0.448 1-1v0-6c0-0.552-0.448-1-1-1v0h-6zM2 21c0-1.657 1.343-3 3-3v0h6c1.657 0 3 1.343 3 3v0 6c0 1.657-1.343 3-3 3v0h-6c-1.657 0-3-1.343-3-3v0-6zM5 20c-0.552 0-1 0.448-1 1v0 6c0 0.552 0.448 1 1 1v0h6c0.552 0 1-0.448 1-1v0-6c0-0.552-0.448-1-1-1v0h-6zM18 21c0-1.657 1.343-3 3-3v0h6c1.657 0 3 1.343 3 3v0 6c0 1.657-1.343 3-3 3v0h-6c-1.657 0-3-1.343-3-3v0-6zM21 20c-0.552 0-1 0.448-1 1v0 6c0 0.552 0.448 1 1 1v0h6c0.552 0 1-0.448 1-1v0-6c0-0.552-0.448-1-1-1v0h-6z"></path>
</symbol>
<symbol id="icon-paneltruck" viewBox="0 0 32 32">
<path d="M12 2h-10v28h10v-28zM30 2h-10v10h10v-10zM30 20v10h-10v-10h10zM0 2c0-1.105 0.895-2 2-2v0h10c1.105 0 2 0.895 2 2v0 28c0 1.105-0.895 2-2 2v0h-10c-1.105 0-2-0.895-2-2v0-28zM18 2c0-1.105 0.895-2 2-2v0h10c1.105 0 2 0.895 2 2v0 10c0 1.105-0.895 2-2 2v0h-10c-1.105 0-2-0.895-2-2v0-10zM20 18c-1.105 0-2 0.895-2 2v0 10c0 1.105 0.895 2 2 2v0h10c1.105 0 2-0.895 2-2v0-10c0-1.105-0.895-2-2-2v0h-10z"></path>
</symbol>

<symbol id="icon-bathroom" viewBox="0 0 32 32">
<path d="M8 29.5c0 0.828-0.672 1.5-1.5 1.5s-1.5-0.672-1.5-1.5v0c0-0.828 0.672-1.5 1.5-1.5s1.5 0.672 1.5 1.5v0zM10.5 24c-0.828 0-1.5 0.672-1.5 1.5s0.672 1.5 1.5 1.5v0c0.828 0 1.5-0.672 1.5-1.5s-0.672-1.5-1.5-1.5v0zM2.5 24c-0.828 0-1.5 0.672-1.5 1.5s0.672 1.5 1.5 1.5v0c0.828 0 1.5-0.672 1.5-1.5s-0.672-1.5-1.5-1.5v0zM6.5 20c-0.828 0-1.5 0.672-1.5 1.5s0.672 1.5 1.5 1.5v0c0.828 0 1.5-0.672 1.5-1.5s-0.672-1.5-1.5-1.5v0zM32 5c0 0.552-0.448 1-1 1v0h-3.586l-3.482 3.482-2.707 15.85c-0.165 0.952-0.985 1.667-1.972 1.667-0.552 0-1.052-0.224-1.414-0.585l-12.25-12.25c-0.362-0.362-0.587-0.862-0.587-1.415 0-0.989 0.718-1.81 1.661-1.971l0.012-0.002 15.842-2.708 3.776-3.775c0.181-0.181 0.431-0.293 0.707-0.293h4c0.552 0 1 0.448 1 1v0zM21.776 10.224l-14.776 2.526 12.25 12.25 2.526-14.776z"></path>
</symbol>
<symbol id="icon-kitchen" viewBox="0 0 32 32">
<path d="M1 12c-0.552 0.001-0.999 0.449-0.999 1.001 0 0.076 0.009 0.15 0.025 0.222l-0.001-0.007 3.304 14.868c0.514 2.257 2.503 3.915 4.88 3.916h11.584c2.377-0.001 4.366-1.659 4.874-3.882l0.006-0.034 0.262-1.18c0.332 0.065 0.713 0.102 1.103 0.102 3.314 0 6-2.686 6-6 0-2.782-1.893-5.121-4.461-5.801l-0.042-0.009 0.442-1.98c0.015-0.065 0.024-0.139 0.024-0.216 0-0.552-0.448-1-1-1h-26zM26 25c-0.212 0-0.423-0.017-0.632-0.050l1.734-7.796c1.682 0.499 2.889 2.030 2.889 3.844 0 2.206-1.785 3.996-3.99 4.002h-0.001zM5.28 27.65l-3.034-13.65h23.508l-3.034 13.65c-0.308 1.354-1.502 2.35-2.928 2.35h-11.584c-1.426-0-2.62-0.996-2.924-2.33l-0.004-0.020z"></path>
<path d="M8.8 1.6l-0.006 0.008-0.028 0.038c-0.146 0.2-0.282 0.407-0.408 0.62-0.097 0.151-0.191 0.326-0.272 0.508l-0.010 0.026c-0.052 0.12-0.068 0.184-0.074 0.206v0.008c0.025 0.187 0.089 0.355 0.185 0.501l-0.003-0.005c0.15 0.266 0.356 0.544 0.616 0.89l0.020 0.024c0.236 0.316 0.52 0.694 0.74 1.086 0.224 0.4 0.44 0.91 0.44 1.49 0 0.376-0.13 0.736-0.238 0.988-0.132 0.303-0.267 0.558-0.419 0.801l0.015-0.025c-0.181 0.301-0.348 0.551-0.525 0.792l0.019-0.028-0.036 0.050-0.010 0.016-0.004 0.004c-0.184 0.245-0.474 0.401-0.801 0.401-0.552 0-1-0.448-1-1 0-0.226 0.075-0.434 0.201-0.602l-0.002 0.003 0.006-0.008 0.028-0.038c0.146-0.2 0.282-0.407 0.408-0.62 0.097-0.151 0.191-0.326 0.272-0.508l0.010-0.026c0.052-0.12 0.068-0.184 0.074-0.206-0.023-0.189-0.087-0.36-0.183-0.509l0.003 0.005c-0.204-0.339-0.408-0.63-0.63-0.905l0.012 0.015-0.020-0.024c-0.249-0.316-0.494-0.67-0.715-1.040l-0.025-0.046c-0.261-0.425-0.423-0.937-0.44-1.485l-0-0.005c0-0.376 0.13-0.736 0.238-0.988 0.118-0.276 0.268-0.548 0.404-0.776 0.159-0.261 0.328-0.516 0.506-0.764l0.050-0.070c0.184-0.245 0.474-0.401 0.801-0.401 0.552 0 1 0.448 1 1 0 0.226-0.075 0.434-0.201 0.602l0.002-0.003zM14.8 1.6l-0.006 0.008-0.028 0.038c-0.146 0.2-0.282 0.407-0.408 0.62-0.107 0.17-0.202 0.35-0.282 0.534-0.052 0.12-0.068 0.184-0.074 0.206v0.008c0.025 0.187 0.089 0.355 0.185 0.501l-0.003-0.005c0.15 0.266 0.356 0.544 0.616 0.89l0.020 0.024c0.236 0.316 0.52 0.694 0.74 1.086 0.224 0.4 0.44 0.91 0.44 1.49 0 0.376-0.13 0.736-0.238 0.988-0.116 0.268-0.25 0.528-0.404 0.776-0.181 0.301-0.348 0.55-0.525 0.791l0.019-0.027-0.036 0.050-0.010 0.016-0.004 0.004c-0.184 0.245-0.474 0.401-0.801 0.401-0.552 0-1-0.448-1-1 0-0.226 0.075-0.434 0.201-0.602l-0.002 0.003 0.006-0.008 0.028-0.038c0.146-0.2 0.282-0.407 0.408-0.62 0.107-0.17 0.202-0.35 0.282-0.534 0.052-0.12 0.068-0.184 0.074-0.206-0.023-0.189-0.087-0.36-0.183-0.509l0.003 0.005c-0.204-0.339-0.408-0.63-0.63-0.905l0.012 0.015-0.020-0.024c-0.27-0.345-0.517-0.708-0.74-1.086-0.261-0.425-0.423-0.937-0.44-1.485l-0-0.005c0-0.376 0.13-0.736 0.238-0.988 0.118-0.276 0.268-0.548 0.404-0.776 0.159-0.261 0.328-0.516 0.506-0.764l0.050-0.070c0.184-0.245 0.474-0.401 0.801-0.401 0.552 0 1 0.448 1 1 0 0.226-0.075 0.434-0.201 0.602l0.002-0.003zM20.8 1.6l-0.006 0.008-0.028 0.038c-0.145 0.2-0.282 0.407-0.408 0.62-0.107 0.17-0.202 0.35-0.282 0.534-0.052 0.12-0.068 0.184-0.074 0.206v0.008c0.025 0.187 0.089 0.355 0.185 0.501l-0.003-0.005c0.15 0.266 0.356 0.544 0.616 0.89l0.020 0.024c0.236 0.316 0.52 0.694 0.74 1.086 0.224 0.4 0.44 0.91 0.44 1.49 0 0.376-0.13 0.736-0.238 0.988-0.116 0.268-0.25 0.528-0.404 0.776-0.156 0.262-0.324 0.517-0.504 0.764l-0.038 0.050-0.010 0.016-0.004 0.004c-0.184 0.245-0.474 0.401-0.801 0.401-0.552 0-1-0.448-1-1 0-0.226 0.075-0.434 0.201-0.602l-0.002 0.003 0.006-0.008 0.028-0.038c0.145-0.2 0.282-0.407 0.408-0.62 0.107-0.17 0.202-0.35 0.282-0.534 0.052-0.12 0.068-0.184 0.074-0.206-0.023-0.189-0.087-0.36-0.183-0.509l0.003 0.005c-0.204-0.339-0.408-0.63-0.63-0.905l0.012 0.015-0.020-0.024c-0.27-0.345-0.517-0.708-0.74-1.086-0.261-0.425-0.423-0.937-0.44-1.485l-0-0.005c0-0.376 0.13-0.736 0.238-0.988 0.118-0.276 0.268-0.548 0.404-0.776 0.159-0.261 0.328-0.516 0.506-0.764l0.050-0.070c0.184-0.245 0.474-0.401 0.801-0.401 0.552 0 1 0.448 1 1 0 0.226-0.075 0.434-0.201 0.602l0.002-0.003z"></path>
</symbol>

<symbol id="icon-ac" viewBox="0 0 32 32">
<path d="M25 4c-2.761 0-5 2.239-5 5v0c0 0.552-0.448 1-1 1s-1-0.448-1-1v0c0-3.866 3.134-7 7-7s7 3.134 7 7c0 3.866-3.134 7-7 7v0h-24c-0.552 0-1-0.448-1-1s0.448-1 1-1v0h24c2.761 0 5-2.239 5-5s-2.239-5-5-5v0zM11 6c-1.105 0-2 0.895-2 2v0c0 0.552-0.448 1-1 1s-1-0.448-1-1v0c0-2.209 1.791-4 4-4s4 1.791 4 4c0 2.209-1.791 4-4 4v0h-10c-0.552 0-1-0.448-1-1s0.448-1 1-1v0h10c1.105 0 2-0.895 2-2s-0.895-2-2-2v0zM0 19c0-0.552 0.448-1 1-1v0h20.084c3.314 0 6 2.686 6 6s-2.686 6-6 6c-3.314 0-6-2.686-6-6v0c0-0.552 0.448-1 1-1s1 0.448 1 1v0c0 2.209 1.791 4 4 4s4-1.791 4-4c0-2.209-1.791-4-4-4v0h-20.084c-0.552 0-1-0.448-1-1v0z"></path>
</symbol>
<symbol id="icon-tv" viewBox="0 0 32 32">
<path d="M0 8s0-4 4-4h24s4 0 4 4v12s0 4-4 4h-8c0 1.333 0.167 2.333 0.5 3h1.5c0.552 0 1 0.448 1 1s-0.448 1-1 1v0h-12c-0.552 0-1-0.448-1-1s0.448-1 1-1v0h1.5c0.333-0.667 0.5-1.667 0.5-3h-8s-4 0-4-4v-12zM2.796 6.29c-0.218 0.153-0.391 0.357-0.504 0.595l-0.004 0.009c-0.161 0.329-0.264 0.713-0.288 1.118l-0 0.008v11.98c0 0.65 0.156 1.004 0.29 1.204 0.14 0.208 0.341 0.377 0.604 0.508 0.338 0.162 0.703 0.259 1.076 0.286l0.050 0.002h23.98c0.65 0 1.004-0.156 1.204-0.29 0.218-0.153 0.391-0.357 0.504-0.595l0.004-0.009c0.162-0.338 0.259-0.703 0.286-1.076l0.002-0.050v-11.98c0-0.65-0.156-1.004-0.29-1.204-0.153-0.218-0.357-0.391-0.595-0.504l-0.009-0.004c-0.329-0.161-0.713-0.264-1.118-0.288l-0.008-0h-23.98c-0.65 0-1.004 0.156-1.204 0.29z"></path>
</symbol>


    <symbol id="icon-heart" viewBox="0 0 37 32">
      <path d="m18.286 11.968-2.043-4.089c-.507-1.013-1.387-2.469-2.633-3.646-1.225-1.159-2.693-1.947-4.466-1.947-3.831 0-6.857 3.031-6.857 6.674 0 2.768 1.266 4.722 4.27 7.703.77.763 1.648 1.589 2.619 2.498 2.533 2.377 5.682 5.335 9.111 9.289 3.429-3.954 6.578-6.912 9.111-9.289.971-.91 1.851-1.737 2.619-2.498 3.003-2.981 4.27-4.935 4.27-7.703 0-3.643-3.026-6.674-6.857-6.674-1.776 0-3.241.789-4.466 1.947-1.246 1.177-2.126 2.633-2.633 3.646l-2.043 4.089zm.896 18.953a1.176 1.176 0 0 1-1.39.307 1.176 1.176 0 0 1-.402-.307c-3.659-4.347-6.971-7.456-9.698-10.014C2.972 16.475.001 13.689.001 8.96.001 4.011 4.092 0 9.144 0c3.657 0 6.215 2.4 7.781 4.59a17.27 17.27 0 0 1 1.362 2.267 17.41 17.41 0 0 1 1.362-2.267C21.215 2.398 23.772 0 27.43 0c5.051 0 9.143 4.011 9.143 8.96 0 4.729-2.971 7.515-7.691 11.947-2.727 2.56-6.039 5.671-9.698 10.014z"/>
    </symbol>
 
    <symbol id="icon-rating" viewBox="0 0 34 32">
      <path fill="#ffc531" d="M16.123 1.788a1.067 1.067 0 0 1 1.887 0l4.028 7.635c.154.293.436.497.761.553l8.506 1.472a1.066 1.066 0 0 1 .583 1.794l-6.017 6.19c-.23.237-.338.568-.291.895l1.229 8.544a1.066 1.066 0 0 1-1.526 1.109l-7.747-3.809a1.066 1.066 0 0 0-.941 0L8.848 29.98a1.066 1.066 0 0 1-1.526-1.109l1.229-8.544a1.065 1.065 0 0 0-.291-.895l-6.016-6.19a1.066 1.066 0 0 1 .583-1.794l8.506-1.472c.326-.056.607-.261.762-.553l4.028-7.635z" style="fill:var(--color1, #ffc531)"/>
    </symbol>
  
  
    <symbol id="icon-map" viewBox="0 0 32 32">
      <path d="M31.634.226A.991.991 0 0 1 32 1v28a.999.999 0 0 1-.804.98l-10 2a.995.995 0 0 1-.392 0L11 30.02l-9.804 1.96a.995.995 0 0 1-1.1-.552A1.003 1.003 0 0 1 0 31V3a.999.999 0 0 1 .804-.98l10-2a.995.995 0 0 1 .392 0L21 1.98 30.804.02a.996.996 0 0 1 .83.206zM20 3.82l-8-1.6v25.96l8 1.6V3.82zm2 25.96 8-1.6V2.22l-8 1.6v25.96zm-12-1.6V2.22l-8 1.6v25.96l8-1.6z"/>
    </symbol>
 

    <symbol id="icon-logo" viewBox="0 0 290 32">
      <path fill="#475467" d="M288.838 15.333h-7.697a2.114 2.114 0 0 0-.501-1.227 2.81 2.81 0 0 0-1.135-.788 3.87 3.87 0 0 0-1.517-.288c-.717 0-1.333.131-1.847.394-.516.263-.768.636-.757 1.121-.011.343.137.662.439.955.311.293.913.52 1.803.682l4.727.849c2.383.434 4.156 1.167 5.318 2.197 1.171 1.02 1.762 2.389 1.773 4.106-.011 1.657-.506 3.096-1.485 4.318-.971 1.212-2.3 2.151-3.985 2.818-1.677.656-3.593.985-5.743.985-3.556 0-6.338-.727-8.348-2.182-2.001-1.454-3.117-3.374-3.349-5.758h8.303a2.388 2.388 0 0 0 1.09 1.712c.627.394 1.414.591 2.364.591.768 0 1.399-.131 1.894-.394.506-.263.764-.636.772-1.121-.009-.445-.233-.798-.666-1.061-.425-.263-1.092-.475-2.001-.636l-4.119-.727c-2.374-.414-4.151-1.202-5.333-2.364s-1.769-2.657-1.758-4.485c-.011-1.616.414-2.985 1.271-4.106.868-1.131 2.106-1.99 3.712-2.576 1.617-.596 3.531-.894 5.743-.894 3.364 0 6.016.697 7.955 2.091 1.95 1.394 2.974 3.323 3.076 5.788zM248.352 25.515l.06-9.939h1.092l5.636-7.818h9.393l-9.455 12.182h-2.364l-4.363 5.576zm-7.516 5.515V0h8.365v31.03h-8.365zm14.364 0-5.333-9.212 5.455-5.939 9.455 15.152H255.2zM225.321 31.454c-2.526 0-4.687-.5-6.485-1.5-1.798-1.01-3.177-2.414-4.137-4.212-.96-1.808-1.439-3.904-1.439-6.288s.479-4.475 1.439-6.273a10.193 10.193 0 0 1 4.137-4.212c1.798-1.01 3.959-1.515 6.485-1.515 2.283 0 4.258.414 5.924 1.242 1.677.818 2.974 1.98 3.893 3.485.919 1.495 1.385 3.253 1.395 5.273h-7.759c-.111-1.222-.465-2.152-1.06-2.788-.587-.646-1.344-.97-2.272-.97-.727 0-1.365.212-1.909.636-.546.414-.971 1.045-1.274 1.894-.303.838-.454 1.894-.454 3.167s.151 2.333.454 3.182c.303.838.727 1.47 1.274 1.894.544.414 1.182.621 1.909.621.617 0 1.161-.141 1.636-.424.474-.293.858-.717 1.152-1.273.303-.566.484-1.252.544-2.061h7.759c-.032 2.051-.501 3.838-1.41 5.364-.909 1.515-2.197 2.687-3.863 3.515-1.658.828-3.637 1.242-5.939 1.242zM200.637 20.848V7.757h8.364V31.03h-7.939v-4.424h-.243c-.505 1.485-1.389 2.646-2.651 3.485-1.263.828-2.763 1.242-4.5 1.242-1.626 0-3.051-.374-4.273-1.121-1.212-.748-2.157-1.778-2.833-3.091-.667-1.313-1.005-2.818-1.015-4.515V7.757h8.364v13.091c.01 1.152.303 2.056.879 2.712.586.657 1.404.985 2.455.985.697 0 1.298-.147 1.803-.439a3 3 0 0 0 1.182-1.273c.283-.556.419-1.217.409-1.985zM166.193 31.03V7.757h8.121v4.424h.242c.424-1.636 1.096-2.833 2.015-3.591.929-.758 2.015-1.136 3.258-1.136.364 0 .722.03 1.076.091.364.051.712.126 1.045.227v7.136c-.414-.141-.924-.247-1.53-.318s-1.126-.106-1.561-.106c-.818 0-1.556.187-2.212.561a3.96 3.96 0 0 0-1.53 1.545c-.374.657-.561 1.429-.561 2.318v12.121h-8.364zM137.495 6.788V0h26.97v6.788h-9.333v24.243h-8.303V6.788h-9.333z" style="fill:var(--color1, #475467)"/>
      <path fill="#101828" d="M133.35 0v31.03h-8.364V0h8.364zM109.326 31.454c-2.485 0-4.626-.475-6.424-1.424a9.981 9.981 0 0 1-4.136-4.121c-.96-1.798-1.439-3.949-1.439-6.455 0-2.404.485-4.505 1.454-6.303s2.338-3.197 4.106-4.197 3.854-1.5 6.258-1.5c1.757 0 3.348.273 4.773.818s2.641 1.338 3.651 2.379c1.01 1.03 1.788 2.283 2.333 3.758s.818 3.136.818 4.985v1.939H99.932v-4.606h13.091c-.01-.667-.182-1.253-.515-1.758a3.286 3.286 0 0 0-1.318-1.197c-.546-.293-1.167-.439-1.864-.439-.677 0-1.298.146-1.864.439a3.526 3.526 0 0 0-1.364 1.182c-.333.505-.51 1.096-.53 1.773v4.97c0 .747.157 1.414.47 2s.763 1.045 1.348 1.379c.586.333 1.293.5 2.121.5.576 0 1.101-.081 1.576-.242a3.546 3.546 0 0 0 1.242-.697c.343-.313.596-.687.758-1.121h7.636c-.263 1.616-.884 3.02-1.864 4.212-.98 1.182-2.278 2.101-3.894 2.758-1.606.646-3.485.97-5.636.97zM95.651 7.758l-7.818 23.273h-9.697L70.318 7.758h8.788l3.758 15.394h.242l3.758-15.394h8.788zM53.453 31.394c-1.485 0-2.798-.242-3.939-.727-1.131-.495-2.02-1.242-2.667-2.242s-.97-2.273-.97-3.818c0-1.273.217-2.359.652-3.258.434-.909 1.04-1.651 1.818-2.227s1.682-1.015 2.712-1.318a16.44 16.44 0 0 1 3.364-.591c1.303-.101 2.348-.222 3.136-.364.798-.151 1.374-.359 1.727-.621.353-.273.53-.631.53-1.076v-.061c0-.606-.232-1.071-.697-1.394s-1.061-.485-1.788-.485c-.798 0-1.449.177-1.955.53-.495.343-.793.874-.894 1.591h-7.697a7.94 7.94 0 0 1 1.348-3.909c.808-1.202 1.985-2.162 3.53-2.879 1.545-.727 3.475-1.091 5.788-1.091 1.667 0 3.162.197 4.485.591 1.323.384 2.449.924 3.379 1.621.929.687 1.636 1.495 2.121 2.424.495.919.742 1.919.742 3v15.939H60.36v-3.273h-.182c-.465.869-1.03 1.571-1.697 2.106a6.26 6.26 0 0 1-2.258 1.167c-.838.242-1.763.364-2.773.364zm2.727-5.273c.636 0 1.232-.131 1.788-.394.566-.263 1.025-.642 1.379-1.136s.53-1.096.53-1.803v-1.939a9.74 9.74 0 0 1-.712.258 14.606 14.606 0 0 1-1.667.424c-.303.061-.621.116-.954.167-.646.101-1.177.268-1.591.5-.404.222-.707.5-.909.834a2.095 2.095 0 0 0-.288 1.091c0 .647.227 1.142.682 1.485s1.035.515 1.742.515zM28.698 31.03V7.757h8.121v4.424h.242c.424-1.636 1.096-2.833 2.015-3.591.929-.758 2.015-1.136 3.258-1.136.364 0 .722.03 1.076.091.364.051.712.126 1.045.227v7.136c-.414-.141-.924-.247-1.53-.318s-1.126-.106-1.561-.106c-.818 0-1.555.187-2.212.561a3.96 3.96 0 0 0-1.53 1.545c-.374.657-.561 1.429-.561 2.318v12.121h-8.364zM0 6.788V0h26.97v6.788h-9.333v24.243H9.334V6.788H.001z" style="fill:var(--color2, #101828)"/>
    </symbol>
  

    <symbol id="icon-manual" viewBox="0 0 32 32">
      <path d="M29.164 10.472c-1.25-.328-4.189-.324-8.488-.438.203-.938.25-1.784.25-3.286C20.926 3.16 18.312 0 16 0c-1.633 0-2.979 1.335-3 2.977-.022 2.014-.645 5.492-4 7.256-.246.13-.95.477-1.053.522L8 10.8c-.525-.453-1.253-.8-2-.8H3c-1.654 0-3 1.346-3 3v16c0 1.654 1.346 3 3 3h3c1.19 0 2.186-.719 2.668-1.727.012.004.033.01.047.012l.239.062.046.012c.576.143 1.685.408 4.055.953.508.116 3.192.688 5.972.688h5.467c1.666 0 2.867-.641 3.582-1.928.01-.02.24-.469.428-1.076a3.33 3.33 0 0 0 .023-1.76c1.074-.738 1.42-1.854 1.645-2.58.377-1.191.264-2.086.002-2.727.604-.57 1.119-1.439 1.336-2.766a3.757 3.757 0 0 0-.389-2.372c.566-.636.824-1.436.854-2.176l.012-.209c.007-.131.013-.212.013-.5 0-1.263-.875-2.874-2.836-3.434zM7 29a1 1 0 0 1-1 1H3a1 1 0 0 1-1-1V13a1 1 0 0 1 1-1h3a1 1 0 0 1 1 1v16zm22.977-14.465C29.957 15.029 29.75 16 28 16h-2a.5.5 0 1 0 0 1h1.938c1.5 0 1.697 1.244 1.6 1.844-.124.746-.474 2.156-2.163 2.156H25a.499.499 0 1 0 0 1h1.969c1.688 0 1.539 1.287 1.297 2.055-.319 1.009-.514 1.945-2.641 1.945h-1.631a.499.499 0 1 0 0 1h1.568c1.094 0 1.145 1.035 1.031 1.406-.125.406-.273.707-.279.721-.302.545-.789.873-1.82.873h-5.467c-2.746 0-5.47-.623-5.54-.639-4.154-.957-4.373-1.031-4.634-1.105 0 0-.846-.143-.846-.881L8 13.563c0-.469.299-.893.794-1.042.062-.024.146-.05.206-.075 4.568-1.892 5.959-6.04 6-9.446.006-.479.375-1 1-1 1.057 0 2.926 2.122 2.926 4.748 0 2.371-.096 2.781-.926 5.252 10 0 9.93.144 10.812.375 1.094.313 1.188 1.219 1.188 1.531 0 .343-.01.293-.023.629zM4.5 26a1.5 1.5 0 1 0 .001 3.001A1.5 1.5 0 0 0 4.5 26zm0 2c-.275 0-.5-.225-.5-.5s.225-.5.5-.5.5.225.5.5-.225.5-.5.5z"/>
    </symbol>

    <symbol id="icon-diesel" viewBox="0 0 32 32">
      <path d="M20.682 3.732C20.209 3.26 19.582 3 18.914 3s-1.295.26-1.77.733l-1.41 1.412A2.482 2.482 0 0 0 15 6.914c0 .471.129.922.371 1.313L1.794 13.666a2.998 2.998 0 0 0-.908 4.876l12.72 12.58a2.982 2.982 0 0 0 2.045.877l.078.001a2.985 2.985 0 0 0 2.787-1.89l5.342-13.376c.402.265.875.407 1.367.407a2.48 2.48 0 0 0 1.768-.733L28.4 15c.477-.474.738-1.103.738-1.773s-.262-1.3-.732-1.768l-7.724-7.727zm-4.023 25.635a1 1 0 0 1-1.638.341L2.293 17.12a.998.998 0 0 1 .307-1.623l6.217-2.49c4.189 1.393 8.379.051 12.57 4.522l-4.728 11.838zM26.992 13.58l-1.414 1.413a.499.499 0 0 1-.707 0l-1.768-1.767-1.432 3.589.119-.303c-3.01-3.005-6.069-3.384-8.829-3.723-.887-.109-1.747-.223-2.592-.405l8.491-3.401-1.715-1.715a.5.5 0 0 1 0-.707l1.414-1.415a.5.5 0 0 1 .707 0l7.725 7.727a.496.496 0 0 1 .001.707zM16.5 21c1.378 0 2.5-1.121 2.5-2.5S17.879 16 16.5 16 14 17.121 14 18.5s1.122 2.5 2.5 2.5zm0-4a1.5 1.5 0 1 1-.001 3.001A1.5 1.5 0 0 1 16.5 17zm13-17C28.121 0 27 1.121 27 2.5S28.121 5 29.5 5 32 3.879 32 2.5 30.879 0 29.5 0zm0 4a1.5 1.5 0 1 1 .001-3.001A1.5 1.5 0 0 1 29.5 4zM8 17c0 1.103.897 2 2 2s2-.897 2-2-.897-2-2-2-2 .897-2 2zm2-1a1 1 0 1 1 0 2 1 1 0 0 1 0-2zm2 7a1 1 0 1 1 2 0 1 1 0 0 1-2 0zM28 8a1 1 0 1 1 2 0 1 1 0 0 1-2 0z"/>
    </symbol>

     <symbol id="icon-petrol" viewBox="0 0 32 32">
      <path d="M6 5a.997.997 0 0 1 1-1h10a.997.997 0 0 1 1 1v10a.997.997 0 0 1-1 1H7a.997.997 0 0 1-1-1V5z"/>
      <path d="M2 4a4.003 4.003 0 0 1 4-4h12a4.003 4.003 0 0 1 4 4v16a4.003 4.003 0 0 1 4 4v1a.997.997 0 0 0 1 1 .997.997 0 0 0 1-1v-9h-1a.997.997 0 0 1-1-1V8.75a.997.997 0 0 1 1-1h2.99c-.022-.952-.106-1.788-.402-2.444a1.944 1.944 0 0 0-.788-.916C28.432 4.17 27.872 4 27 4a.997.997 0 0 1-1-1 .997.997 0 0 1 1-1c1.128-.003 2.069.221 2.824.672.766.456 1.268 1.102 1.588 1.814.59 1.31.588 2.93.588 4.162v6.35c0 .132-.025.262-.076.383s-.124.232-.217.325a.991.991 0 0 1-.708.293h-1v9a3.004 3.004 0 0 1-3 3 2.998 2.998 0 0 1-3-3v-1a2 2 0 0 0-2-2v8h1a.997.997 0 0 1 1 1 .997.997 0 0 1-1 1h-22a.997.997 0 0 1-1-1 .997.997 0 0 1 1-1h1v-26zm18 0a2 2 0 0 0-2-2H6a2 2 0 0 0-2 2v26h16V4z"/>
    </symbol>
 
 <symbol id="icon-automatic" viewBox="0 0 32 32">
<path d="M12 7c0-1.657 1.343-3 3-3v0h2c1.657 0 3 1.343 3 3v0 2c0 1.657-1.343 3-3 3v0 2h11c0.552 0 1 0.448 1 1v0 2c0 0.552-0.448 1-1 1s-1-0.448-1-1v0-1h-10v1c0 0.552-0.448 1-1 1s-1-0.448-1-1v0-1h-10v1c0 0.552-0.448 1-1 1s-1-0.448-1-1v0-2c0-0.552 0.448-1 1-1v0h11v-2c-1.657 0-3-1.343-3-3v0-2zM17 10c0.552 0 1-0.448 1-1v0-2c0-0.552-0.448-1-1-1v0h-2c-0.552 0-1 0.448-1 1v0 2c0 0.552 0.448 1 1 1v0h2zM0 23c0-1.657 1.343-3 3-3v0h2c1.657 0 3 1.343 3 3v0 2c0 1.657-1.343 3-3 3v0h-2c-1.657 0-3-1.343-3-3v0-2zM3 22c-0.552 0-1 0.448-1 1v0 2c0 0.552 0.448 1 1 1v0h2c0.552 0 1-0.448 1-1v0-2c0-0.552-0.448-1-1-1v0h-2zM12 23c0-1.657 1.343-3 3-3v0h2c1.657 0 3 1.343 3 3v0 2c0 1.657-1.343 3-3 3v0h-2c-1.657 0-3-1.343-3-3v0-2zM15 22c-0.552 0-1 0.448-1 1v0 2c0 0.552 0.448 1 1 1v0h2c0.552 0 1-0.448 1-1v0-2c0-0.552-0.448-1-1-1v0h-2zM24 23c0-1.657 1.343-3 3-3v0h2c1.657 0 3 1.343 3 3v0 2c0 1.657-1.343 3-3 3v0h-2c-1.657 0-3-1.343-3-3v0-2zM27 22c-0.552 0-1 0.448-1 1v0 2c0 0.552 0.448 1 1 1v0h2c0.552 0 1-0.448 1-1v0-2c0-0.552-0.448-1-1-1v0h-2z"></path>
</symbol>
</svg>