<svg aria-hidden="true" style="position: absolute; width: 0; height: 0; overflow: hidden;" version="1.1" xmlns="http://www.w3.org/2000/svg" xmlns:xlink="http://www.w3.org/1999/xlink">
<defs>
<symbol id="icon-ion_water" viewBox="0 0 32 32">
<path stroke-linejoin="miter" stroke-linecap="butt" stroke-miterlimit="10" stroke-width="2" d="M25 20c0 5.523-3.477 9-9 9s-9-3.477-9-9c0-5.927 6.452-13.928 8.43-16.243 0.138-0.161 0.342-0.263 0.57-0.263s0.432 0.101 0.569 0.262l0.001 0.001c1.978 2.315 8.43 10.316 8.43 16.243z"></path>
<path stroke-linejoin="round" stroke-linecap="round" stroke-miterlimit="4" stroke-width="2" d="M21.5 20.5c0 2.485-2.015 4.5-4.5 4.5v0"></path>
</symbol>
<symbol id="icon-hugeicons_gas" viewBox="0 0 32 32">
<path stroke-linejoin="round" stroke-linecap="round" stroke-miterlimit="4" stroke-width="2.4" d="M8 25.333h5.333M24 25.345v-0.012M2.667 8c0-4.413 0.92-5.333 5.333-5.333h16c4.413 0 5.333 0.92 5.333 5.333v16c0 4.413-0.92 5.333-5.333 5.333h-16c-4.413 0-5.333-0.92-5.333-5.333v-16z"></path>
<path stroke-linejoin="round" stroke-linecap="round" stroke-miterlimit="4" stroke-width="2.4" d="M16 18.667c2.946 0 5.334-2.388 5.334-5.334s-2.388-5.334-5.334-5.334v0c-2.946 0-5.334 2.388-5.334 5.334s2.388 5.334 5.334 5.334v0zM20.667 13.333h2M16 18v2M11.333 13.333h-2M16 8.667v-2"></path>
</symbol>
<symbol id="icon-solar_fridge-outline" viewBox="0 0 32 32">
<path d="M23.667 9.333c0-0.552-0.448-1-1-1s-1 0.448-1 1v0 2.667c0 0.552 0.448 1 1 1s1-0.448 1-1v0-2.667zM23.667 18.667c0-0.552-0.448-1-1-1s-1 0.448-1 1v0 2.666c0 0.552 0.448 1 1 1s1-0.448 1-1v0-2.666z"></path>
<path d="M16.075 1.667h-0.15c-2.45 0-4.392 0-5.91 0.204-1.563 0.21-2.828 0.653-3.827 1.65-0.997 0.999-1.44 2.264-1.65 3.827-0.205 1.52-0.205 3.46-0.205 5.91v4.15c0 2.45 0 4.392 0.204 5.91 0.211 1.563 0.654 2.829 1.651 3.827 0.613 0.612 1.325 1.015 2.145 1.284v0.904c0 0.552 0.448 1 1 1v0h1.334c0.552 0 1-0.448 1-1v0-0.394c1.209 0.061 2.62 0.061 4.258 0.061h0.15c1.64 0 3.049 0 4.258-0.061v0.394c0 0.552 0.448 1 1 1v0h1.334c0.552 0 1-0.448 1-1v0-0.904c0.82-0.269 1.533-0.672 2.145-1.284 0.997-0.998 1.44-2.264 1.65-3.826 0.205-1.52 0.205-3.46 0.205-5.911v-4.148c0-2.45 0-4.392-0.204-5.91-0.211-1.563-0.654-2.829-1.651-3.827-0.999-0.998-2.264-1.44-3.827-1.651-1.52-0.204-3.46-0.204-5.91-0.204zM7.603 4.936c0.564-0.564 1.337-0.903 2.678-1.083 1.371-0.184 3.176-0.186 5.719-0.186s4.35 0.002 5.72 0.186c1.34 0.18 2.113 0.519 2.677 1.083s0.903 1.337 1.083 2.679c0.184 1.37 0.187 3.176 0.187 5.718v1h-19.334v-1c0-2.542 0.003-4.348 0.187-5.72 0.18-1.34 0.519-2.113 1.083-2.677zM6.333 16.333h19.334v1c0 2.543-0.003 4.35-0.187 5.72-0.18 1.34-0.519 2.114-1.083 2.678s-1.337 0.902-2.678 1.082c-1.371 0.184-3.176 0.187-5.719 0.187s-4.348-0.003-5.72-0.187c-1.34-0.18-2.113-0.518-2.677-1.082s-0.903-1.338-1.083-2.679c-0.184-1.37-0.187-3.176-0.187-5.719v-1z"></path>
</symbol>
<symbol id="icon-bi_grid-3x3-gap" viewBox="0 0 32 32">
<path d="M8 4v4h-4v-4h4zM10 28v-4c0-1.105-0.895-2-2-2v0h-4c-1.105 0-2 0.895-2 2v0 4c0 1.105 0.895 2 2 2v0h4c1.105 0 2-0.895 2-2v0zM10 18v-4c0-1.105-0.895-2-2-2v0h-4c-1.105 0-2 0.895-2 2v0 4c0 1.105 0.895 2 2 2v0h4c1.105 0 2-0.895 2-2v0zM10 8v-4c0-1.105-0.895-2-2-2v0h-4c-1.105 0-2 0.895-2 2v0 4c0 1.105 0.895 2 2 2v0h4c1.105 0 2-0.895 2-2v0zM20 28v-4c0-1.105-0.895-2-2-2v0h-4c-1.105 0-2 0.895-2 2v0 4c0 1.105 0.895 2 2 2v0h4c1.105 0 2-0.895 2-2v0zM20 18v-4c0-1.105-0.895-2-2-2v0h-4c-1.105 0-2 0.895-2 2v0 4c0 1.105 0.895 2 2 2v0h4c1.105 0 2-0.895 2-2v0zM20 8v-4c0-1.105-0.895-2-2-2v0h-4c-1.105 0-2 0.895-2 2v0 4c0 1.105 0.895 2 2 2v0h4c1.105 0 2-0.895 2-2v0zM18 4v4h-4v-4h4zM28 4v4h-4v-4h4zM8 14v4h-4v-4h4zM18 14v4h-4v-4h4zM28 14h-4v4h4v-4zM8 24v4h-4v-4h4zM18 24v4h-4v-4h4zM28 24v4h-4v-4h4zM24 2c-1.105 0-2 0.895-2 2v0 4c0 1.105 0.895 2 2 2v0h4c1.105 0 2-0.895 2-2v0-4c0-1.105-0.895-2-2-2v0h-4zM22 14c0-1.105 0.895-2 2-2v0h4c1.105 0 2 0.895 2 2v0 4c0 1.105-0.895 2-2 2v0h-4c-1.105 0-2-0.895-2-2v0-4zM24 22c-1.105 0-2 0.895-2 2v0 4c0 1.105 0.895 2 2 2v0h4c1.105 0 2-0.895 2-2v0-4c0-1.105-0.895-2-2-2v0h-4z"></path>
</symbol>
<symbol id="icon-bi_grid" viewBox="0 0 32 32">
<path d="M2 5c0-1.657 1.343-3 3-3v0h6c1.657 0 3 1.343 3 3v0 6c0 1.657-1.343 3-3 3v0h-6c-1.657 0-3-1.343-3-3v0-6zM5 4c-0.552 0-1 0.448-1 1v0 6c0 0.552 0.448 1 1 1v0h6c0.552 0 1-0.448 1-1v0-6c0-0.552-0.448-1-1-1v0h-6zM18 5c0-1.657 1.343-3 3-3v0h6c1.657 0 3 1.343 3 3v0 6c0 1.657-1.343 3-3 3v0h-6c-1.657 0-3-1.343-3-3v0-6zM21 4c-0.552 0-1 0.448-1 1v0 6c0 0.552 0.448 1 1 1v0h6c0.552 0 1-0.448 1-1v0-6c0-0.552-0.448-1-1-1v0h-6zM2 21c0-1.657 1.343-3 3-3v0h6c1.657 0 3 1.343 3 3v0 6c0 1.657-1.343 3-3 3v0h-6c-1.657 0-3-1.343-3-3v0-6zM5 20c-0.552 0-1 0.448-1 1v0 6c0 0.552 0.448 1 1 1v0h6c0.552 0 1-0.448 1-1v0-6c0-0.552-0.448-1-1-1v0h-6zM18 21c0-1.657 1.343-3 3-3v0h6c1.657 0 3 1.343 3 3v0 6c0 1.657-1.343 3-3 3v0h-6c-1.657 0-3-1.343-3-3v0-6zM21 20c-0.552 0-1 0.448-1 1v0 6c0 0.552 0.448 1 1 1v0h6c0.552 0 1-0.448 1-1v0-6c0-0.552-0.448-1-1-1v0h-6z"></path>
</symbol>
<symbol id="icon-bi_grid-1x2" viewBox="0 0 32 32">
<path d="M12 2h-10v28h10v-28zM30 2h-10v10h10v-10zM30 20v10h-10v-10h10zM0 2c0-1.105 0.895-2 2-2v0h10c1.105 0 2 0.895 2 2v0 28c0 1.105-0.895 2-2 2v0h-10c-1.105 0-2-0.895-2-2v0-28zM18 2c0-1.105 0.895-2 2-2v0h10c1.105 0 2 0.895 2 2v0 10c0 1.105-0.895 2-2 2v0h-10c-1.105 0-2-0.895-2-2v0-10zM20 18c-1.105 0-2 0.895-2 2v0 10c0 1.105 0.895 2 2 2v0h10c1.105 0 2-0.895 2-2v0-10c0-1.105-0.895-2-2-2v0h-10z"></path>
</symbol>
<symbol id="icon-ph_shower" viewBox="0 0 32 32">
<path d="M8 29.5c0 0.828-0.672 1.5-1.5 1.5s-1.5-0.672-1.5-1.5v0c0-0.828 0.672-1.5 1.5-1.5s1.5 0.672 1.5 1.5v0zM10.5 24c-0.828 0-1.5 0.672-1.5 1.5s0.672 1.5 1.5 1.5v0c0.828 0 1.5-0.672 1.5-1.5s-0.672-1.5-1.5-1.5v0zM2.5 24c-0.828 0-1.5 0.672-1.5 1.5s0.672 1.5 1.5 1.5v0c0.828 0 1.5-0.672 1.5-1.5s-0.672-1.5-1.5-1.5v0zM6.5 20c-0.828 0-1.5 0.672-1.5 1.5s0.672 1.5 1.5 1.5v0c0.828 0 1.5-0.672 1.5-1.5s-0.672-1.5-1.5-1.5v0zM32 5c0 0.552-0.448 1-1 1v0h-3.586l-3.482 3.482-2.707 15.85c-0.165 0.952-0.985 1.667-1.972 1.667-0.552 0-1.052-0.224-1.414-0.585l-12.25-12.25c-0.362-0.362-0.587-0.862-0.587-1.415 0-0.989 0.718-1.81 1.661-1.971l0.012-0.002 15.842-2.708 3.776-3.775c0.181-0.181 0.431-0.293 0.707-0.293h4c0.552 0 1 0.448 1 1v0zM21.776 10.224l-14.776 2.526 12.25 12.25 2.526-14.776z"></path>
</symbol>
<symbol id="icon-cup-hot" viewBox="0 0 32 32">
<path d="M1 12c-0.552 0.001-0.999 0.449-0.999 1.001 0 0.076 0.009 0.15 0.025 0.222l-0.001-0.007 3.304 14.868c0.514 2.257 2.503 3.915 4.88 3.916h11.584c2.377-0.001 4.366-1.659 4.874-3.882l0.006-0.034 0.262-1.18c0.332 0.065 0.713 0.102 1.103 0.102 3.314 0 6-2.686 6-6 0-2.782-1.893-5.121-4.461-5.801l-0.042-0.009 0.442-1.98c0.015-0.065 0.024-0.139 0.024-0.216 0-0.552-0.448-1-1-1h-26zM26 25c-0.212 0-0.423-0.017-0.632-0.050l1.734-7.796c1.682 0.499 2.889 2.030 2.889 3.844 0 2.206-1.785 3.996-3.99 4.002h-0.001zM5.28 27.65l-3.034-13.65h23.508l-3.034 13.65c-0.308 1.354-1.502 2.35-2.928 2.35h-11.584c-1.426-0-2.62-0.996-2.924-2.33l-0.004-0.020z"></path>
<path d="M8.8 1.6l-0.006 0.008-0.028 0.038c-0.146 0.2-0.282 0.407-0.408 0.62-0.097 0.151-0.191 0.326-0.272 0.508l-0.010 0.026c-0.052 0.12-0.068 0.184-0.074 0.206v0.008c0.025 0.187 0.089 0.355 0.185 0.501l-0.003-0.005c0.15 0.266 0.356 0.544 0.616 0.89l0.020 0.024c0.236 0.316 0.52 0.694 0.74 1.086 0.224 0.4 0.44 0.91 0.44 1.49 0 0.376-0.13 0.736-0.238 0.988-0.132 0.303-0.267 0.558-0.419 0.801l0.015-0.025c-0.181 0.301-0.348 0.551-0.525 0.792l0.019-0.028-0.036 0.050-0.010 0.016-0.004 0.004c-0.184 0.245-0.474 0.401-0.801 0.401-0.552 0-1-0.448-1-1 0-0.226 0.075-0.434 0.201-0.602l-0.002 0.003 0.006-0.008 0.028-0.038c0.146-0.2 0.282-0.407 0.408-0.62 0.097-0.151 0.191-0.326 0.272-0.508l0.010-0.026c0.052-0.12 0.068-0.184 0.074-0.206-0.023-0.189-0.087-0.36-0.183-0.509l0.003 0.005c-0.204-0.339-0.408-0.63-0.63-0.905l0.012 0.015-0.020-0.024c-0.249-0.316-0.494-0.67-0.715-1.040l-0.025-0.046c-0.261-0.425-0.423-0.937-0.44-1.485l-0-0.005c0-0.376 0.13-0.736 0.238-0.988 0.118-0.276 0.268-0.548 0.404-0.776 0.159-0.261 0.328-0.516 0.506-0.764l0.050-0.070c0.184-0.245 0.474-0.401 0.801-0.401 0.552 0 1 0.448 1 1 0 0.226-0.075 0.434-0.201 0.602l0.002-0.003zM14.8 1.6l-0.006 0.008-0.028 0.038c-0.146 0.2-0.282 0.407-0.408 0.62-0.107 0.17-0.202 0.35-0.282 0.534-0.052 0.12-0.068 0.184-0.074 0.206v0.008c0.025 0.187 0.089 0.355 0.185 0.501l-0.003-0.005c0.15 0.266 0.356 0.544 0.616 0.89l0.020 0.024c0.236 0.316 0.52 0.694 0.74 1.086 0.224 0.4 0.44 0.91 0.44 1.49 0 0.376-0.13 0.736-0.238 0.988-0.116 0.268-0.25 0.528-0.404 0.776-0.181 0.301-0.348 0.55-0.525 0.791l0.019-0.027-0.036 0.050-0.010 0.016-0.004 0.004c-0.184 0.245-0.474 0.401-0.801 0.401-0.552 0-1-0.448-1-1 0-0.226 0.075-0.434 0.201-0.602l-0.002 0.003 0.006-0.008 0.028-0.038c0.146-0.2 0.282-0.407 0.408-0.62 0.107-0.17 0.202-0.35 0.282-0.534 0.052-0.12 0.068-0.184 0.074-0.206-0.023-0.189-0.087-0.36-0.183-0.509l0.003 0.005c-0.204-0.339-0.408-0.63-0.63-0.905l0.012 0.015-0.020-0.024c-0.27-0.345-0.517-0.708-0.74-1.086-0.261-0.425-0.423-0.937-0.44-1.485l-0-0.005c0-0.376 0.13-0.736 0.238-0.988 0.118-0.276 0.268-0.548 0.404-0.776 0.159-0.261 0.328-0.516 0.506-0.764l0.050-0.070c0.184-0.245 0.474-0.401 0.801-0.401 0.552 0 1 0.448 1 1 0 0.226-0.075 0.434-0.201 0.602l0.002-0.003zM20.8 1.6l-0.006 0.008-0.028 0.038c-0.145 0.2-0.282 0.407-0.408 0.62-0.107 0.17-0.202 0.35-0.282 0.534-0.052 0.12-0.068 0.184-0.074 0.206v0.008c0.025 0.187 0.089 0.355 0.185 0.501l-0.003-0.005c0.15 0.266 0.356 0.544 0.616 0.89l0.020 0.024c0.236 0.316 0.52 0.694 0.74 1.086 0.224 0.4 0.44 0.91 0.44 1.49 0 0.376-0.13 0.736-0.238 0.988-0.116 0.268-0.25 0.528-0.404 0.776-0.156 0.262-0.324 0.517-0.504 0.764l-0.038 0.050-0.010 0.016-0.004 0.004c-0.184 0.245-0.474 0.401-0.801 0.401-0.552 0-1-0.448-1-1 0-0.226 0.075-0.434 0.201-0.602l-0.002 0.003 0.006-0.008 0.028-0.038c0.145-0.2 0.282-0.407 0.408-0.62 0.107-0.17 0.202-0.35 0.282-0.534 0.052-0.12 0.068-0.184 0.074-0.206-0.023-0.189-0.087-0.36-0.183-0.509l0.003 0.005c-0.204-0.339-0.408-0.63-0.63-0.905l0.012 0.015-0.020-0.024c-0.27-0.345-0.517-0.708-0.74-1.086-0.261-0.425-0.423-0.937-0.44-1.485l-0-0.005c0-0.376 0.13-0.736 0.238-0.988 0.118-0.276 0.268-0.548 0.404-0.776 0.159-0.261 0.328-0.516 0.506-0.764l0.050-0.070c0.184-0.245 0.474-0.401 0.801-0.401 0.552 0 1 0.448 1 1 0 0.226-0.075 0.434-0.201 0.602l0.002-0.003z"></path>
</symbol>
<symbol id="icon-diagram" viewBox="0 0 32 32">
<path d="M12 7c0-1.657 1.343-3 3-3v0h2c1.657 0 3 1.343 3 3v0 2c0 1.657-1.343 3-3 3v0 2h11c0.552 0 1 0.448 1 1v0 2c0 0.552-0.448 1-1 1s-1-0.448-1-1v0-1h-10v1c0 0.552-0.448 1-1 1s-1-0.448-1-1v0-1h-10v1c0 0.552-0.448 1-1 1s-1-0.448-1-1v0-2c0-0.552 0.448-1 1-1v0h11v-2c-1.657 0-3-1.343-3-3v0-2zM17 10c0.552 0 1-0.448 1-1v0-2c0-0.552-0.448-1-1-1v0h-2c-0.552 0-1 0.448-1 1v0 2c0 0.552 0.448 1 1 1v0h2zM0 23c0-1.657 1.343-3 3-3v0h2c1.657 0 3 1.343 3 3v0 2c0 1.657-1.343 3-3 3v0h-2c-1.657 0-3-1.343-3-3v0-2zM3 22c-0.552 0-1 0.448-1 1v0 2c0 0.552 0.448 1 1 1v0h2c0.552 0 1-0.448 1-1v0-2c0-0.552-0.448-1-1-1v0h-2zM12 23c0-1.657 1.343-3 3-3v0h2c1.657 0 3 1.343 3 3v0 2c0 1.657-1.343 3-3 3v0h-2c-1.657 0-3-1.343-3-3v0-2zM15 22c-0.552 0-1 0.448-1 1v0 2c0 0.552 0.448 1 1 1v0h2c0.552 0 1-0.448 1-1v0-2c0-0.552-0.448-1-1-1v0h-2zM24 23c0-1.657 1.343-3 3-3v0h2c1.657 0 3 1.343 3 3v0 2c0 1.657-1.343 3-3 3v0h-2c-1.657 0-3-1.343-3-3v0-2zM27 22c-0.552 0-1 0.448-1 1v0 2c0 0.552 0.448 1 1 1v0h2c0.552 0 1-0.448 1-1v0-2c0-0.552-0.448-1-1-1v0h-2z"></path>
</symbol>
<symbol id="icon-wind" viewBox="0 0 32 32">
<path d="M25 4c-2.761 0-5 2.239-5 5v0c0 0.552-0.448 1-1 1s-1-0.448-1-1v0c0-3.866 3.134-7 7-7s7 3.134 7 7c0 3.866-3.134 7-7 7v0h-24c-0.552 0-1-0.448-1-1s0.448-1 1-1v0h24c2.761 0 5-2.239 5-5s-2.239-5-5-5v0zM11 6c-1.105 0-2 0.895-2 2v0c0 0.552-0.448 1-1 1s-1-0.448-1-1v0c0-2.209 1.791-4 4-4s4 1.791 4 4c0 2.209-1.791 4-4 4v0h-10c-0.552 0-1-0.448-1-1s0.448-1 1-1v0h10c1.105 0 2-0.895 2-2s-0.895-2-2-2v0zM0 19c0-0.552 0.448-1 1-1v0h20.084c3.314 0 6 2.686 6 6s-2.686 6-6 6c-3.314 0-6-2.686-6-6v0c0-0.552 0.448-1 1-1s1 0.448 1 1v0c0 2.209 1.791 4 4 4s4-1.791 4-4c0-2.209-1.791-4-4-4v0h-20.084c-0.552 0-1-0.448-1-1v0z"></path>
</symbol>
<symbol id="icon-tv" viewBox="0 0 32 32">
<path d="M0 8s0-4 4-4h24s4 0 4 4v12s0 4-4 4h-8c0 1.333 0.167 2.333 0.5 3h1.5c0.552 0 1 0.448 1 1s-0.448 1-1 1v0h-12c-0.552 0-1-0.448-1-1s0.448-1 1-1v0h1.5c0.333-0.667 0.5-1.667 0.5-3h-8s-4 0-4-4v-12zM2.796 6.29c-0.218 0.153-0.391 0.357-0.504 0.595l-0.004 0.009c-0.161 0.329-0.264 0.713-0.288 1.118l-0 0.008v11.98c0 0.65 0.156 1.004 0.29 1.204 0.14 0.208 0.341 0.377 0.604 0.508 0.338 0.162 0.703 0.259 1.076 0.286l0.050 0.002h23.98c0.65 0 1.004-0.156 1.204-0.29 0.218-0.153 0.391-0.357 0.504-0.595l0.004-0.009c0.162-0.338 0.259-0.703 0.286-1.076l0.002-0.050v-11.98c0-0.65-0.156-1.004-0.29-1.204-0.153-0.218-0.357-0.391-0.595-0.504l-0.009-0.004c-0.329-0.161-0.713-0.264-1.118-0.288l-0.008-0h-23.98c-0.65 0-1.004 0.156-1.204 0.29z"></path>
</symbol>
<symbol id="icon-logo" viewBox="0 0 290 32">
<path fill="#475467" style="fill: var(--color1, #475467)" d="M288.838 15.333h-7.697c-0.041-0.475-0.207-0.884-0.501-1.227-0.292-0.343-0.672-0.606-1.135-0.788-0.457-0.192-0.96-0.288-1.517-0.288-0.717 0-1.333 0.131-1.847 0.394-0.516 0.263-0.768 0.636-0.757 1.121-0.011 0.343 0.137 0.662 0.439 0.955 0.311 0.293 0.913 0.52 1.803 0.682l4.727 0.849c2.383 0.434 4.156 1.167 5.318 2.197 1.171 1.020 1.762 2.389 1.773 4.106-0.011 1.657-0.506 3.096-1.485 4.318-0.971 1.212-2.3 2.151-3.985 2.818-1.677 0.656-3.593 0.985-5.743 0.985-3.556 0-6.338-0.727-8.348-2.182-2.001-1.454-3.117-3.374-3.349-5.758h8.303c0.111 0.738 0.476 1.308 1.090 1.712 0.627 0.394 1.414 0.591 2.364 0.591 0.768 0 1.399-0.131 1.894-0.394 0.506-0.263 0.764-0.636 0.772-1.121-0.009-0.445-0.233-0.798-0.666-1.061-0.425-0.263-1.092-0.475-2.001-0.636l-4.119-0.727c-2.374-0.414-4.151-1.202-5.333-2.364s-1.769-2.657-1.758-4.485c-0.011-1.616 0.414-2.985 1.271-4.106 0.868-1.131 2.106-1.99 3.712-2.576 1.617-0.596 3.531-0.894 5.743-0.894 3.364 0 6.016 0.697 7.955 2.091 1.95 1.394 2.974 3.323 3.076 5.788z"></path>
<path fill="#475467" style="fill: var(--color1, #475467)" d="M248.352 25.515l0.060-9.939h1.092l5.636-7.818h9.393l-9.455 12.182h-2.364l-4.363 5.576zM240.836 31.030v-31.030h8.365v31.030h-8.365zM255.2 31.030l-5.333-9.212 5.455-5.939 9.455 15.152h-9.577z"></path>
<path fill="#475467" style="fill: var(--color1, #475467)" d="M225.321 31.454c-2.526 0-4.687-0.5-6.485-1.5-1.798-1.010-3.177-2.414-4.137-4.212-0.96-1.808-1.439-3.904-1.439-6.288s0.479-4.475 1.439-6.273c0.96-1.808 2.338-3.212 4.137-4.212 1.798-1.010 3.959-1.515 6.485-1.515 2.283 0 4.258 0.414 5.924 1.242 1.677 0.818 2.974 1.98 3.893 3.485 0.919 1.495 1.385 3.253 1.395 5.273h-7.759c-0.111-1.222-0.465-2.152-1.060-2.788-0.587-0.646-1.344-0.97-2.272-0.97-0.727 0-1.365 0.212-1.909 0.636-0.546 0.414-0.971 1.045-1.274 1.894-0.303 0.838-0.454 1.894-0.454 3.167s0.151 2.333 0.454 3.182c0.303 0.838 0.727 1.47 1.274 1.894 0.544 0.414 1.182 0.621 1.909 0.621 0.617 0 1.161-0.141 1.636-0.424 0.474-0.293 0.858-0.717 1.152-1.273 0.303-0.566 0.484-1.252 0.544-2.061h7.759c-0.032 2.051-0.501 3.838-1.41 5.364-0.909 1.515-2.197 2.687-3.863 3.515-1.658 0.828-3.637 1.242-5.939 1.242z"></path>
<path fill="#475467" style="fill: var(--color1, #475467)" d="M200.637 20.848v-13.091h8.364v23.273h-7.939v-4.424h-0.243c-0.505 1.485-1.389 2.646-2.651 3.485-1.263 0.828-2.763 1.242-4.5 1.242-1.626 0-3.051-0.374-4.273-1.121-1.212-0.748-2.157-1.778-2.833-3.091-0.667-1.313-1.005-2.818-1.015-4.515v-14.849h8.364v13.091c0.010 1.152 0.303 2.056 0.879 2.712 0.586 0.657 1.404 0.985 2.455 0.985 0.697 0 1.298-0.147 1.803-0.439 0.515-0.303 0.909-0.727 1.182-1.273 0.283-0.556 0.419-1.217 0.409-1.985z"></path>
<path fill="#475467" style="fill: var(--color1, #475467)" d="M166.193 31.030v-23.273h8.121v4.424h0.242c0.424-1.636 1.096-2.833 2.015-3.591 0.929-0.758 2.015-1.136 3.258-1.136 0.364 0 0.722 0.030 1.076 0.091 0.364 0.051 0.712 0.126 1.045 0.227v7.136c-0.414-0.141-0.924-0.247-1.53-0.318s-1.126-0.106-1.561-0.106c-0.818 0-1.556 0.187-2.212 0.561-0.646 0.364-1.156 0.879-1.53 1.545-0.374 0.657-0.561 1.429-0.561 2.318v12.121h-8.364z"></path>
<path fill="#475467" style="fill: var(--color1, #475467)" d="M137.495 6.788v-6.788h26.97v6.788h-9.333v24.243h-8.303v-24.243h-9.333z"></path>
<path fill="#101828" style="fill: var(--color2, #101828)" d="M133.35 0v31.030h-8.364v-31.030h8.364z"></path>
<path fill="#101828" style="fill: var(--color2, #101828)" d="M109.326 31.454c-2.485 0-4.626-0.475-6.424-1.424-1.788-0.96-3.166-2.333-4.136-4.121-0.96-1.798-1.439-3.949-1.439-6.455 0-2.404 0.485-4.505 1.454-6.303s2.338-3.197 4.106-4.197 3.854-1.5 6.258-1.5c1.757 0 3.348 0.273 4.773 0.818s2.641 1.338 3.651 2.379c1.010 1.030 1.788 2.283 2.333 3.758s0.818 3.136 0.818 4.985v1.939h-20.788v-4.606h13.091c-0.010-0.667-0.182-1.253-0.515-1.758-0.323-0.515-0.763-0.914-1.318-1.197-0.546-0.293-1.167-0.439-1.864-0.439-0.677 0-1.298 0.146-1.864 0.439-0.566 0.283-1.020 0.677-1.364 1.182-0.333 0.505-0.51 1.096-0.53 1.773v4.97c0 0.747 0.157 1.414 0.47 2s0.763 1.045 1.348 1.379c0.586 0.333 1.293 0.5 2.121 0.5 0.576 0 1.101-0.081 1.576-0.242 0.485-0.162 0.899-0.394 1.242-0.697 0.343-0.313 0.596-0.687 0.758-1.121h7.636c-0.263 1.616-0.884 3.020-1.864 4.212-0.98 1.182-2.278 2.101-3.894 2.758-1.606 0.646-3.485 0.97-5.636 0.97z"></path>
<path fill="#101828" style="fill: var(--color2, #101828)" d="M95.651 7.758l-7.818 23.273h-9.697l-7.818-23.273h8.788l3.758 15.394h0.242l3.758-15.394h8.788z"></path>
<path fill="#101828" style="fill: var(--color2, #101828)" d="M53.453 31.394c-1.485 0-2.798-0.242-3.939-0.727-1.131-0.495-2.020-1.242-2.667-2.242s-0.97-2.273-0.97-3.818c0-1.273 0.217-2.359 0.652-3.258 0.434-0.909 1.040-1.651 1.818-2.227s1.682-1.015 2.712-1.318c1.040-0.303 2.161-0.5 3.364-0.591 1.303-0.101 2.348-0.222 3.136-0.364 0.798-0.151 1.374-0.359 1.727-0.621 0.353-0.273 0.53-0.631 0.53-1.076v-0.061c0-0.606-0.232-1.071-0.697-1.394s-1.061-0.485-1.788-0.485c-0.798 0-1.449 0.177-1.955 0.53-0.495 0.343-0.793 0.874-0.894 1.591h-7.697c0.101-1.414 0.551-2.717 1.348-3.909 0.808-1.202 1.985-2.162 3.53-2.879 1.545-0.727 3.475-1.091 5.788-1.091 1.667 0 3.162 0.197 4.485 0.591 1.323 0.384 2.449 0.924 3.379 1.621 0.929 0.687 1.636 1.495 2.121 2.424 0.495 0.919 0.742 1.919 0.742 3v15.939h-7.818v-3.273h-0.182c-0.465 0.869-1.030 1.571-1.697 2.106-0.657 0.535-1.409 0.924-2.258 1.167-0.838 0.242-1.763 0.364-2.773 0.364zM56.18 26.121c0.636 0 1.232-0.131 1.788-0.394 0.566-0.263 1.025-0.642 1.379-1.136s0.53-1.096 0.53-1.803v-1.939c-0.222 0.091-0.46 0.177-0.712 0.258-0.243 0.081-0.505 0.157-0.788 0.227-0.273 0.071-0.566 0.136-0.879 0.197-0.303 0.061-0.621 0.116-0.954 0.167-0.646 0.101-1.177 0.268-1.591 0.5-0.404 0.222-0.707 0.5-0.909 0.834-0.192 0.323-0.288 0.687-0.288 1.091 0 0.647 0.227 1.142 0.682 1.485s1.035 0.515 1.742 0.515z"></path>
<path fill="#101828" style="fill: var(--color2, #101828)" d="M28.698 31.030v-23.273h8.121v4.424h0.242c0.424-1.636 1.096-2.833 2.015-3.591 0.929-0.758 2.015-1.136 3.258-1.136 0.364 0 0.722 0.030 1.076 0.091 0.364 0.051 0.712 0.126 1.045 0.227v7.136c-0.414-0.141-0.924-0.247-1.53-0.318s-1.126-0.106-1.561-0.106c-0.818 0-1.555 0.187-2.212 0.561-0.646 0.364-1.156 0.879-1.53 1.545-0.374 0.657-0.561 1.429-0.561 2.318v12.121h-8.364z"></path>
<path fill="#101828" style="fill: var(--color2, #101828)" d="M0 6.788v-6.788h26.97v6.788h-9.333v24.243h-8.303v-24.243h-9.333z"></path>
</symbol>
</defs>
</svg>
